<svg xmlns="http://www.w3.org/2000/svg" xmlns:xlink="http://www.w3.org/1999/xlink" width="22" height="22" viewBox="0 0 22 22">
  <defs>
    <rect id="rect-1" width="22" height="22" x="0" y="0"/>
    <mask id="mask-2" maskContentUnits="userSpaceOnUse" maskUnits="userSpaceOnUse">
      <rect width="22" height="22" x="0" y="0" fill="black"/>
      <use fill="white" xlink:href="#rect-1"/>
    </mask>
  </defs>
  <g>
    <use fill="none" xlink:href="#rect-1"/>
    <g mask="url(#mask-2)">
      <path fill="rgb(255,255,255)" fill-rule="evenodd" d="M5.5 17.875H2.75c-.75906167-.00079576-1.37420424-.61593833-1.375-1.375v-2.75H2.75v2.75H5.5v1.375z"/>
      <rect width="1.375" height="2.75" x="1.375" y="8.25" fill="rgb(255,255,255)" rx="0" ry="0"/>
      <path fill="rgb(255,255,255)" fill-rule="evenodd" d="M17.875 5.5H16.5V2.75h-2.75V1.375h2.75c.75906167.00079576 1.37420424.61593833 1.375 1.375V5.5z"/>
      <rect width="2.75" height="1.375" x="8.25" y="1.375" fill="rgb(255,255,255)" rx="0" ry="0"/>
      <path fill="rgb(255,255,255)" fill-rule="evenodd" d="M2.75 5.5H1.375V2.75c.00079576-.75906167.61593833-1.37420424 1.375-1.375H5.5V2.75H2.75V5.5z"/>
      <path fill="rgb(255,255,255)" fill-rule="evenodd" d="M18.0764389 21.79855347c.12875748.12915039.30368805.20166015.4860611.20144653.18237305.00021362.35730362-.07229614.4860611-.20144653l2.75-2.75c.12899017-.12884522.20146179-.30371094.20146179-.48605347s-.07247162-.35717773-.2014618-.48605347l-4.21966552-4.21966552 3.42745972-2.28479004c.2216568-.1477356.33800888-.4102478.29862213-.67370606-.03938294-.26345825-.22742081-.48043823-.48259735-.55691528l-13.75-4.125c-.24223328-.07263184-.50479126-.0064087-.68361283.1723938-.17882156.178833-.24503326.44137573-.1723938.68362427l4.12500382 13.75c.07646179.25518798.29345703.44320678.55691528.48260498.26345825.03936767.5259552-.07696534.67370606-.29864502l2.28477096-3.42745972 4.21966934 4.21966553zM20.34030533 18.5625L18.5625 20.34030151l-4.91906357-4.91897583-2.40473556 3.60647583L7.9005432 7.90054321l11.1272583 3.33816529-3.60649109 2.40472412L20.34030532 18.5625z"/>
      <rect width="22" height="22" x="-140.25" y="-1.375" fill="none" rx="0" ry="0"/>
    </g>
  </g>
</svg>
